Antonio-Light.ufo
<glyph name="dollar" format="1">
  <advance width="860"/>
  <unicode hex="0024"/>
  <outline>
    <contour>
      <point x="327" y="1760" type="line"/>
      <point x="327" y="1468" type="line"/>
      <point x="434" y="1468" type="line"/>
      <point x="434" y="1760" type="line"/>
    </contour>
    <contour>
      <point x="348" y="17" type="line"/>
      <point x="348" y="-271" type="line"/>
      <point x="455" y="-271" type="line"/>
      <point x="455" y="17" type="line"/>
    </contour>
    <component base="s" yOffset="-2"/>
  </outline>
</glyph>
<glyph name="ampersand" format="1">
  <advance width="915"/>
  <unicode hex="0026"/>
  <outline>
    <contour>
      <point x="273" y="1782"/>
      <point x="176" y="1670"/>
      <point x="176" y="1443" type="curve" smooth="yes"/>
      <point x="176" y="1195"/>
      <point x="689" y="266"/>
      <point x="799" y="0" type="curve"/>
      <point x="923" y="0" type="line"/>
      <point x="757" y="378"/>
      <point x="322" y="1192"/>
      <point x="322" y="1441" type="curve" smooth="yes"/>
      <point x="322" y="1515"/>
      <point x="306" y="1663"/>
      <point x="463" y="1663" type="curve" smooth="yes"/>
      <point x="578" y="1663"/>
      <point x="594" y="1590"/>
      <point x="594" y="1452" type="curve" smooth="yes"/>
      <point x="594" y="996"/>
      <point x="60" y="889"/>
      <point x="60" y="353" type="curve" smooth="yes"/>
      <point x="60" y="96"/>
      <point x="192" y="-20"/>
      <point x="364" y="-20" type="curve" smooth="yes"/>
      <point x="731" y="-20"/>
      <point x="677" y="376"/>
      <point x="928" y="690" type="curve"/>
      <point x="859" y="797" type="line"/>
      <point x="591" y="479"/>
      <point x="594" y="105"/>
      <point x="382" y="105" type="curve" smooth="yes"/>
      <point x="242" y="105"/>
      <point x="202" y="220"/>
      <point x="213" y="374" type="curve" smooth="yes"/>
      <point x="243" y="823"/>
      <point x="734" y="1025"/>
      <point x="734" y="1434" type="curve" smooth="yes"/>
      <point x="734" y="1654"/>
      <point x="691" y="1782"/>
      <point x="462" y="1782" type="curve" smooth="yes"/>
    </contour>
  </outline>
</glyph>
<glyph name="parenleft" format="1">
  <advance width="519"/>
  <unicode hex="0028"/>
  <outline>
    <contour>
      <point x="184" y="1800"/>
      <point x="133" y="1751"/>
      <point x="133" y="1388" type="curve" smooth="yes"/>
      <point x="133" y="313" type="line" smooth="yes"/>
      <point x="133" y="-50"/>
      <point x="184" y="-99"/>
      <point x="421" y="-99" type="curve"/>
      <point x="421" y="14" type="line"/>
      <point x="301" y="14"/>
      <point x="282" y="6"/>
      <point x="282" y="309" type="curve" smooth="yes"/>
      <point x="282" y="1392" type="line" smooth="yes"/>
      <point x="282" y="1695"/>
      <point x="301" y="1687"/>
      <point x="421" y="1687" type="curve"/>
      <point x="421" y="1800" type="line"/>
    </contour>
  </outline>
</glyph>
<glyph name="slash" format="1">
  <advance width="743"/>
  <unicode hex="002F"/>
  <outline>
    <contour>
      <point x="538" y="1768" type="line"/>
      <point x="88" y="0" type="line"/>
      <point x="222" y="0" type="line"/>
      <point x="673" y="1768" type="line"/>
    </contour>
  </outline>
</glyph>
<glyph name="zero" format="1">
  <advance width="746"/>
  <unicode hex="0030"/>
  <outline>
    <contour>
      <point x="154" y="1781"/>
      <point x="60" y="1642"/>
      <point x="60" y="1316" type="curve" smooth="yes"/>
      <point x="60" y="475" type="line" smooth="yes"/>
      <point x="60" y="128"/>
      <point x="154" y="-21"/>
      <point x="372" y="-21" type="curve" smooth="yes"/>
      <point x="594" y="-21"/>
      <point x="689" y="128"/>
      <point x="689" y="475" type="curve" smooth="yes"/>
      <point x="689" y="1316" type="line" smooth="yes"/>
      <point x="689" y="1642"/>
      <point x="594" y="1781"/>
      <point x="372" y="1781" type="curve" smooth="yes"/>
    </contour>
    <contour>
      <point x="489" y="1657"/>
      <point x="540" y="1558"/>
      <point x="540" y="1327" type="curve" smooth="yes"/>
      <point x="540" y="470" type="line" smooth="yes"/>
      <point x="540" y="212"/>
      <point x="489" y="102"/>
      <point x="369" y="102" type="curve" smooth="yes"/>
      <point x="256" y="102"/>
      <point x="208" y="212"/>
      <point x="208" y="470" type="curve" smooth="yes"/>
      <point x="208" y="1328" type="line" smooth="yes"/>
      <point x="208" y="1558"/>
      <point x="256" y="1657"/>
      <point x="369" y="1657" type="curve" smooth="yes"/>
    </contour>
  </outline>
</glyph>
<glyph name="one" format="1">
  <advance width="569"/>
  <unicode hex="0031"/>
  <outline>
    <contour>
      <point x="314" y="1761" type="line"/>
      <point x="258" y="1629"/>
      <point x="142" y="1556"/>
      <point x="36" y="1541" type="curve"/>
      <point x="36" y="1448" type="line"/>
      <point x="110" y="1448"/>
      <point x="206" y="1477"/>
      <point x="254" y="1534" type="curve"/>
      <point x="254" y="0" type="line"/>
      <point x="403" y="0" type="line"/>
      <point x="403" y="1761" type="line"/>
    </contour>
  </outline>
</glyph>
<glyph name="three" format="1">
  <advance width="746"/>
  <unicode hex="0033"/>
  <outline>
    <contour>
      <point x="121" y="1780"/>
      <point x="44" y="1622"/>
      <point x="44" y="1321" type="curve" smooth="yes"/>
      <point x="44" y="1287" type="line"/>
      <point x="195" y="1287" type="line"/>
      <point x="195" y="1318" type="line" smooth="yes"/>
      <point x="195" y="1597"/>
      <point x="254" y="1655"/>
      <point x="342" y="1655" type="curve" smooth="yes"/>
      <point x="434" y="1655"/>
      <point x="511" y="1610"/>
      <point x="511" y="1322" type="curve" smooth="yes"/>
      <point x="511" y="1014"/>
      <point x="445" y="982"/>
      <point x="298" y="982" type="curve" smooth="yes"/>
      <point x="261" y="982" type="line"/>
      <point x="261" y="854" type="line"/>
      <point x="300" y="854" type="line" smooth="yes"/>
      <point x="449" y="854"/>
      <point x="514" y="771"/>
      <point x="514" y="472" type="curve" smooth="yes"/>
      <point x="514" y="197"/>
      <point x="477" y="104"/>
      <point x="345" y="104" type="curve" smooth="yes"/>
      <point x="211" y="104"/>
      <point x="190" y="184"/>
      <point x="190" y="474" type="curve" smooth="yes"/>
      <point x="190" y="517" type="line"/>
      <point x="38" y="517" type="line"/>
      <point x="38" y="474" type="line" smooth="yes"/>
      <point x="38" y="141"/>
      <point x="120" y="-20"/>
      <point x="344" y="-20" type="curve" smooth="yes"/>
      <point x="566" y="-20"/>
      <point x="664" y="137"/>
      <point x="664" y="468" type="curve" smooth="yes"/>
      <point x="664" y="662"/>
      <point x="611" y="858"/>
      <point x="486" y="914" type="curve"/>
      <point x="613" y="962"/>
      <point x="661" y="1118"/>
      <point x="661" y="1321" type="curve" smooth="yes"/>
      <point x="661" y="1623"/>
      <point x="570" y="1780"/>
      <point x="345" y="1780" type="curve" smooth="yes"/>
    </contour>
  </outline>
</glyph>
<glyph name="four" format="1">
  <advance width="746"/>
  <unicode hex="0034"/>
  <outline>
    <contour>
      <point x="445" y="1761" type="line"/>
      <point x="51" y="449" type="line"/>
      <point x="51" y="352" type="line"/>
      <point x="449" y="352" type="line"/>
      <point x="449" y="-1" type="line"/>
      <point x="589" y="-1" type="line"/>
      <point x="589" y="352" type="line"/>
      <point x="743" y="352" type="line"/>
      <point x="743" y="468" type="line"/>
      <point x="589" y="468" type="line"/>
      <point x="589" y="1761" type="line"/>
    </contour>
    <contour>
      <point x="449" y="468" type="line"/>
      <point x="186" y="468" type="line"/>
      <point x="449" y="1428" type="line"/>
    </contour>
  </outline>
</glyph>
<glyph name="six" format="1">
  <advance width="746"/>
  <unicode hex="0036"/>
  <outline>
    <contour>
      <point x="134" y="1780"/>
      <point x="85" y="1620"/>
      <point x="85" y="1264" type="curve" smooth="yes"/>
      <point x="85" y="506" type="line" smooth="yes"/>
      <point x="85" y="210"/>
      <point x="118" y="-20"/>
      <point x="391" y="-20" type="curve" smooth="yes"/>
      <point x="633" y="-20"/>
      <point x="694" y="145"/>
      <point x="694" y="442" type="curve" smooth="yes"/>
      <point x="694" y="559" type="line" smooth="yes"/>
      <point x="694" y="960"/>
      <point x="625" y="1113"/>
      <point x="390" y="1102" type="curve" smooth="yes"/>
      <point x="332" y="1099"/>
      <point x="276" y="1071"/>
      <point x="233" y="1013" type="curve"/>
      <point x="233" y="1255" type="line" smooth="yes"/>
      <point x="233" y="1574"/>
      <point x="250" y="1655"/>
      <point x="382" y="1655" type="curve" smooth="yes"/>
      <point x="498" y="1655"/>
      <point x="507" y="1574"/>
      <point x="508" y="1283" type="curve" smooth="yes"/>
      <point x="508" y="1271"/>
      <point x="508" y="1264"/>
      <point x="508" y="1252" type="curve"/>
      <point x="660" y="1252" type="line"/>
      <point x="660" y="1268"/>
      <point x="660" y="1269"/>
      <point x="660" y="1284" type="curve" smooth="yes"/>
      <point x="656" y="1619"/>
      <point x="626" y="1780"/>
      <point x="389" y="1780" type="curve" smooth="yes"/>
    </contour>
    <contour>
      <point x="520" y="978"/>
      <point x="544" y="870"/>
      <point x="544" y="547" type="curve" smooth="yes"/>
      <point x="544" y="446" type="line" smooth="yes"/>
      <point x="544" y="170"/>
      <point x="513" y="107"/>
      <point x="391" y="107" type="curve" smooth="yes"/>
      <point x="241" y="107"/>
      <point x="233" y="226"/>
      <point x="233" y="504" type="curve" smooth="yes"/>
      <point x="233" y="926" type="line"/>
      <point x="252" y="931"/>
      <point x="308" y="978"/>
      <point x="402" y="978" type="curve" smooth="yes"/>
    </contour>
  </outline>
</glyph>
<glyph name="nine" format="1">
  <advance width="746"/>
  <unicode hex="0039"/>
  <outline>
    <contour>
      <point x="104" y="1780"/>
      <point x="87" y="1549"/>
      <point x="87" y="1252" type="curve" smooth="yes"/>
      <point x="87" y="1226" type="line" smooth="yes"/>
      <point x="87" y="857"/>
      <point x="129" y="662"/>
      <point x="372" y="662" type="curve" smooth="yes"/>
      <point x="431" y="662"/>
      <point x="487" y="678"/>
      <point x="522" y="712" type="curve"/>
      <point x="522" y="523" type="line" smooth="yes"/>
      <point x="522" y="226"/>
      <point x="536" y="103"/>
      <point x="409" y="103" type="curve" smooth="yes"/>
      <point x="289" y="103"/>
      <point x="272" y="157"/>
      <point x="270" y="483" type="curve" smooth="yes"/>
      <point x="270" y="493"/>
      <point x="270" y="498"/>
      <point x="270" y="508" type="curve"/>
      <point x="127" y="508" type="line"/>
      <point x="127" y="491"/>
      <point x="127" y="489"/>
      <point x="128" y="473" type="curve" smooth="yes"/>
      <point x="133" y="140"/>
      <point x="178" y="-20"/>
      <point x="396" y="-20" type="curve" smooth="yes"/>
      <point x="652" y="-20"/>
      <point x="672" y="186"/>
      <point x="672" y="542" type="curve" smooth="yes"/>
      <point x="672" y="1254" type="line" smooth="yes"/>
      <point x="672" y="1548"/>
      <point x="653" y="1780"/>
      <point x="380" y="1780" type="curve" smooth="yes"/>
    </contour>
    <contour>
      <point x="509" y="1653"/>
      <point x="522" y="1518"/>
      <point x="522" y="1255" type="curve" smooth="yes"/>
      <point x="522" y="803" type="line"/>
      <point x="502" y="794"/>
      <point x="461" y="776"/>
      <point x="386" y="776" type="curve" smooth="yes"/>
      <point x="250" y="776"/>
      <point x="237" y="885"/>
      <point x="237" y="1208" type="curve" smooth="yes"/>
      <point x="237" y="1257" type="line" smooth="yes"/>
      <point x="237" y="1518"/>
      <point x="246" y="1653"/>
      <point x="381" y="1653" type="curve" smooth="yes"/>
    </contour>
  </outline>
</glyph>
<glyph name="semicolon" format="1">
  <advance width="561"/>
  <unicode hex="003B"/>
  <outline>
    <contour>
      <point x="179" y="1279" type="line"/>
      <point x="179" y="1048" type="line"/>
      <point x="362" y="1048" type="line"/>
      <point x="362" y="1279" type="line"/>
    </contour>
    <contour>
      <point x="181" y="523" type="line"/>
      <point x="181" y="350" type="line"/>
      <point x="296" y="350" type="line"/>
      <point x="200" y="0" type="line"/>
      <point x="277" y="0" type="line"/>
      <point x="381" y="359" type="line"/>
      <point x="381" y="523" type="line"/>
    </contour>
  </outline>
</glyph>
<glyph name="less" format="1">
  <advance width="730"/>
  <unicode hex="003C"/>
  <outline>
    <contour>
      <point x="63" y="823" type="line"/>
      <point x="63" y="688" type="line"/>
      <point x="642" y="288" type="line"/>
      <point x="642" y="448" type="line"/>
      <point x="174" y="758" type="line"/>
      <point x="642" y="1051" type="line"/>
      <point x="642" y="1219" type="line"/>
    </contour>
  </outline>
</glyph>
<glyph name="at" format="1">
  <advance width="1325"/>
  <unicode hex="0040"/>
  <outline>
    <contour>
      <point x="240" y="1781"/>
      <point x="91" y="1385"/>
      <point x="91" y="836" type="curve" smooth="yes"/>
      <point x="91" y="255"/>
      <point x="274" y="-53"/>
      <point x="648" y="-53" type="curve" smooth="yes"/>
      <point x="717" y="-53"/>
      <point x="774" y="-43"/>
      <point x="866" y="-24" type="curve"/>
      <point x="849" y="88" type="line"/>
      <point x="774" y="66"/>
      <point x="706" y="60"/>
      <point x="651" y="60" type="curve" smooth="yes"/>
      <point x="362" y="60"/>
      <point x="217" y="258"/>
      <point x="217" y="833" type="curve" smooth="yes"/>
      <point x="217" y="1315"/>
      <point x="325" y="1662"/>
      <point x="705" y="1662" type="curve" smooth="yes"/>
      <point x="1091" y="1662"/>
      <point x="1122" y="1286"/>
      <point x="1122" y="942" type="curve" smooth="yes"/>
      <point x="1122" y="634"/>
      <point x="1099" y="494"/>
      <point x="1029" y="494" type="curve" smooth="yes"/>
      <point x="974" y="494"/>
      <point x="957" y="563"/>
      <point x="957" y="689" type="curve" smooth="yes"/>
      <point x="957" y="1258" type="line"/>
      <point x="885" y="1258" type="line"/>
      <point x="855" y="1136" type="line"/>
      <point x="826" y="1203"/>
      <point x="746" y="1283"/>
      <point x="624" y="1283" type="curve" smooth="yes"/>
      <point x="459" y="1283"/>
      <point x="375" y="1090"/>
      <point x="375" y="810" type="curve" smooth="yes"/>
      <point x="375" y="468"/>
      <point x="524" y="361"/>
      <point x="667" y="361" type="curve" smooth="yes"/>
      <point x="764" y="361"/>
      <point x="851" y="455"/>
      <point x="874" y="585" type="curve"/>
      <point x="889" y="498"/>
      <point x="948" y="378"/>
      <point x="1028" y="378" type="curve" smooth="yes"/>
      <point x="1182" y="378"/>
      <point x="1241" y="616"/>
      <point x="1241" y="910" type="curve" smooth="yes"/>
      <point x="1241" y="1422"/>
      <point x="1103" y="1781"/>
      <point x="718" y="1781" type="curve" smooth="yes"/>
    </contour>
    <contour>
      <point x="847" y="759" type="line" smooth="yes"/>
      <point x="847" y="591"/>
      <point x="768" y="473"/>
      <point x="667" y="473" type="curve" smooth="yes"/>
      <point x="554" y="473"/>
      <point x="482" y="553"/>
      <point x="482" y="816" type="curve" smooth="yes"/>
      <point x="482" y="1088"/>
      <point x="560" y="1195"/>
      <point x="653" y="1195" type="curve" smooth="yes"/>
      <point x="718" y="1195"/>
      <point x="789" y="1144"/>
      <point x="847" y="1062" type="curve"/>
    </contour>
  </outline>
</glyph>
<glyph name="B" format="1">
  <advance width="885"/>
  <unicode hex="0042"/>
  <outline>
    <contour>
      <point x="160" y="1760" type="line"/>
      <point x="160" y="0" type="line"/>
      <point x="462" y="0" type="line" smooth="yes"/>
      <point x="706" y="0"/>
      <point x="764" y="152"/>
      <point x="769" y="487" type="curve" smooth="yes"/>
      <point x="769" y="518" type="line" smooth="yes"/>
      <point x="769" y="712"/>
      <point x="745" y="892"/>
      <point x="632" y="947" type="curve"/>
      <point x="730" y="1011"/>
      <point x="745" y="1136"/>
      <point x="745" y="1343" type="curve" smooth="yes"/>
      <point x="745" y="1366" type="line" smooth="yes"/>
      <point x="742" y="1647"/>
      <point x="691" y="1760"/>
      <point x="417" y="1760" type="curve" smooth="yes"/>
    </contour>
    <contour>
      <point x="596" y="884"/>
      <point x="620" y="781"/>
      <point x="620" y="520" type="curve" smooth="yes"/>
      <point x="620" y="536" type="line" smooth="yes"/>
      <point x="620" y="214"/>
      <point x="593" y="128"/>
      <point x="467" y="128" type="curve" smooth="yes"/>
      <point x="309" y="128" type="line"/>
      <point x="309" y="884" type="line"/>
      <point x="470" y="884" type="line" smooth="yes"/>
    </contour>
    <contour>
      <point x="548" y="1629"/>
      <point x="594" y="1597"/>
      <point x="596" y="1345" type="curve" smooth="yes"/>
      <point x="596" y="1349" type="line" smooth="yes"/>
      <point x="596" y="1025"/>
      <point x="572" y="1004"/>
      <point x="443" y="1004" type="curve" smooth="yes"/>
      <point x="309" y="1004" type="line"/>
      <point x="309" y="1629" type="line"/>
      <point x="421" y="1629" type="line" smooth="yes"/>
    </contour>
  </outline>
</glyph>
<glyph name="E" format="1">
  <advance width="711"/>
  <unicode hex="0045"/>
  <outline>
    <contour>
      <point x="160" y="1760" type="line"/>
      <point x="160" y="0" type="line"/>
      <point x="622" y="0" type="line"/>
      <point x="622" y="118" type="line"/>
      <point x="309" y="118" type="line"/>
      <point x="309" y="835" type="line"/>
      <point x="606" y="835" type="line"/>
      <point x="606" y="956" type="line"/>
      <point x="309" y="956" type="line"/>
      <point x="309" y="1644" type="line"/>
      <point x="625" y="1644" type="line"/>
      <point x="625" y="1760" type="line"/>
    </contour>
    <contour>
      <point x="662" y="10" type="move" name="ogonek"/>
    </contour>
    <contour>
      <point x="441" y="-2" type="move" name="bottom"/>
    </contour>
    <contour>
      <point x="398" y="1760" type="move" name="top"/>
    </contour>
  </outline>
</glyph>
<glyph name="H" format="1">
  <advance width="940"/>
  <unicode hex="0048"/>
  <outline>
    <contour>
      <point x="631" y="1760" type="line"/>
      <point x="631" y="998" type="line"/>
      <point x="309" y="998" type="line"/>
      <point x="309" y="1760" type="line"/>
      <point x="160" y="1760" type="line"/>
      <point x="160" y="0" type="line"/>
      <point x="309" y="0" type="line"/>
      <point x="309" y="886" type="line"/>
      <point x="631" y="886" type="line"/>
      <point x="631" y="0" type="line"/>
      <point x="780" y="0" type="line"/>
      <point x="780" y="1760" type="line"/>
    </contour>
    <contour>
      <point x="470" y="0" type="move" name="center"/>
    </contour>
    <contour>
      <point x="470" y="0" type="move" name="top"/>
    </contour>
  </outline>
</glyph>
<glyph name="K" format="1">
  <advance width="827"/>
  <unicode hex="004B"/>
  <outline>
    <contour>
      <point x="664" y="1760" type="line"/>
      <point x="309" y="893" type="line"/>
      <point x="309" y="1760" type="line"/>
      <point x="160" y="1760" type="line"/>
      <point x="160" y="0" type="line"/>
      <point x="311" y="0" type="line"/>
      <point x="311" y="860" type="line"/>
      <point x="677" y="0" type="line"/>
      <point x="831" y="0" type="line"/>
      <point x="446" y="891" type="line"/>
      <point x="808" y="1760" type="line"/>
    </contour>
    <contour>
      <point x="420" y="-176" type="move" name="top"/>
    </contour>
    <contour>
      <point x="424" y="0" type="move" name="bottom"/>
    </contour>
  </outline>
</glyph>
<glyph name="L" format="1">
  <advance width="639"/>
  <unicode hex="004C"/>
  <outline>
    <contour>
      <point x="160" y="1760" type="line"/>
      <point x="160" y="0" type="line"/>
      <point x="621" y="0" type="line"/>
      <point x="621" y="118" type="line"/>
      <point x="309" y="118" type="line"/>
      <point x="309" y="1760" type="line"/>
    </contour>
    <contour>
      <point x="347" y="1760" type="move" name="top"/>
    </contour>
    <contour>
      <point x="402" y="0" type="move" name="bottom"/>
    </contour>
  </outline>
</glyph>
<glyph name="M" format="1">
  <advance width="1198"/>
  <unicode hex="004D"/>
  <outline>
    <contour>
      <point x="871" y="1760" type="line"/>
      <point x="604" y="282" type="line"/>
      <point x="327" y="1760" type="line"/>
      <point x="160" y="1760" type="line"/>
      <point x="160" y="0" type="line"/>
      <point x="296" y="0" type="line"/>
      <point x="296" y="754" type="line"/>
      <point x="273" y="1463" type="line"/>
      <point x="533" y="38" type="line"/>
      <point x="675" y="38" type="line"/>
      <point x="926" y="1463" type="line"/>
      <point x="903" y="754" type="line"/>
      <point x="903" y="0" type="line"/>
      <point x="1038" y="0" type="line"/>
      <point x="1038" y="1760" type="line"/>
    </contour>
    <contour>
      <point x="604" y="1760" type="move" name="top"/>
    </contour>
  </outline>
</glyph>
<glyph name="N" format="1">
  <advance width="971"/>
  <unicode hex="004E"/>
  <outline>
    <contour>
      <point x="681" y="1760" type="line"/>
      <point x="681" y="1005" type="line"/>
      <point x="696" y="399" type="line"/>
      <point x="264" y="1760" type="line"/>
      <point x="160" y="1760" type="line"/>
      <point x="160" y="0" type="line"/>
      <point x="300" y="0" type="line"/>
      <point x="300" y="850" type="line"/>
      <point x="290" y="1326" type="line"/>
      <point x="695" y="0" type="line"/>
      <point x="811" y="0" type="line"/>
      <point x="811" y="1760" type="line"/>
    </contour>
    <contour>
      <point x="485" y="1760" type="move" name="top"/>
    </contour>
    <contour>
      <point x="485" y="0" type="move" name="bottom"/>
    </contour>
  </outline>
</glyph>
<glyph name="O" format="1">
  <advance width="887"/>
  <unicode hex="004F"/>
  <outline>
    <contour>
      <point x="170" y="1782"/>
      <point x="134" y="1571"/>
      <point x="134" y="1268" type="curve" smooth="yes"/>
      <point x="134" y="519" type="line" smooth="yes"/>
      <point x="134" y="151"/>
      <point x="190" y="-20"/>
      <point x="445" y="-20" type="curve" smooth="yes"/>
      <point x="700" y="-20"/>
      <point x="753" y="151"/>
      <point x="753" y="519" type="curve" smooth="yes"/>
      <point x="753" y="1268" type="line" smooth="yes"/>
      <point x="753" y="1571"/>
      <point x="734" y="1782"/>
      <point x="452" y="1782" type="curve" smooth="yes"/>
    </contour>
    <contour>
      <point x="579" y="1660"/>
      <point x="604" y="1545"/>
      <point x="604" y="1280" type="curve" smooth="yes"/>
      <point x="604" y="519" type="line" smooth="yes"/>
      <point x="604" y="196"/>
      <point x="573" y="102"/>
      <point x="445" y="102" type="curve" smooth="yes"/>
      <point x="312" y="102"/>
      <point x="283" y="196"/>
      <point x="283" y="519" type="curve" smooth="yes"/>
      <point x="283" y="1281" type="line" smooth="yes"/>
      <point x="283" y="1543"/>
      <point x="318" y="1660"/>
      <point x="452" y="1660" type="curve" smooth="yes"/>
    </contour>
    <contour>
      <point x="444" y="1759" type="move" name="top"/>
    </contour>
  </outline>
</glyph>
<glyph name="P" format="1">
  <advance width="843"/>
  <unicode hex="0050"/>
  <outline>
    <contour>
      <point x="160" y="1760" type="line"/>
      <point x="160" y="0" type="line"/>
      <point x="309" y="0" type="line"/>
      <point x="309" y="689" type="line"/>
      <point x="457" y="689" type="line" smooth="yes"/>
      <point x="712" y="689"/>
      <point x="771" y="863"/>
      <point x="771" y="1231" type="curve" smooth="yes"/>
      <point x="771" y="1229"/>
      <point x="771" y="1250"/>
      <point x="771" y="1249" type="curve" smooth="yes"/>
      <point x="772" y="1548"/>
      <point x="749" y="1760"/>
      <point x="466" y="1760" type="curve" smooth="yes"/>
    </contour>
    <contour>
      <point x="598" y="1636"/>
      <point x="623" y="1520"/>
      <point x="622" y="1263" type="curve" smooth="yes"/>
      <point x="622" y="1264"/>
      <point x="622" y="1228"/>
      <point x="622" y="1229" type="curve" smooth="yes"/>
      <point x="622" y="915"/>
      <point x="591" y="815"/>
      <point x="467" y="815" type="curve" smooth="yes"/>
      <point x="309" y="815" type="line"/>
      <point x="309" y="1636" type="line"/>
      <point x="474" y="1636" type="line" smooth="yes"/>
    </contour>
    <contour>
      <point x="448" y="1760" type="move" name="top"/>
    </contour>
  </outline>
</glyph>
<glyph name="R" format="1">
  <advance width="903"/>
  <unicode hex="0052"/>
  <outline>
    <contour>
      <point x="160" y="1760" type="line"/>
      <point x="160" y="0" type="line"/>
      <point x="309" y="0" type="line"/>
      <point x="309" y="868" type="line"/>
      <point x="308" y="868"/>
      <point x="468" y="858"/>
      <point x="467" y="858" type="curve" smooth="yes"/>
      <point x="627" y="858"/>
      <point x="623" y="798"/>
      <point x="623" y="557" type="curve" smooth="yes"/>
      <point x="623" y="82"/>
      <point x="624" y="41"/>
      <point x="645" y="0" type="curve"/>
      <point x="793" y="0" type="line"/>
      <point x="771" y="58"/>
      <point x="771" y="84"/>
      <point x="771" y="164" type="curve" smooth="yes"/>
      <point x="771" y="764"/>
      <point x="746" y="903"/>
      <point x="610" y="925" type="curve"/>
      <point x="733" y="959"/>
      <point x="772" y="1100"/>
      <point x="772" y="1326" type="curve" smooth="yes"/>
      <point x="772" y="1630"/>
      <point x="742" y="1760"/>
      <point x="459" y="1760" type="curve" smooth="yes"/>
    </contour>
    <contour>
      <point x="597" y="1636"/>
      <point x="623" y="1594"/>
      <point x="623" y="1335" type="curve" smooth="yes"/>
      <point x="623" y="1335"/>
      <point x="623" y="1321"/>
      <point x="623" y="1322" type="curve" smooth="yes"/>
      <point x="623" y="1006"/>
      <point x="592" y="968"/>
      <point x="464" y="968" type="curve" smooth="yes"/>
      <point x="308" y="968" type="line"/>
      <point x="308" y="1636" type="line"/>
      <point x="475" y="1636" type="line" smooth="yes"/>
    </contour>
    <contour>
      <point x="462" y="1760" type="move" name="top"/>
    </contour>
    <contour>
      <point x="462" y="0" type="move" name="bottom"/>
    </contour>
  </outline>
</glyph>
<glyph name="S" format="1">
  <advance width="795"/>
  <unicode hex="0053"/>
  <outline>
    <contour>
      <point x="136" y="1782"/>
      <point x="91" y="1599"/>
      <point x="91" y="1346" type="curve" smooth="yes"/>
      <point x="91" y="1144"/>
      <point x="222" y="1021"/>
      <point x="315" y="930" type="curve" smooth="yes"/>
      <point x="417" y="833" type="line" smooth="yes"/>
      <point x="513" y="740"/>
      <point x="572" y="633"/>
      <point x="572" y="452" type="curve" smooth="yes"/>
      <point x="572" y="204"/>
      <point x="565" y="108"/>
      <point x="420" y="108" type="curve" smooth="yes"/>
      <point x="281" y="108"/>
      <point x="257" y="224"/>
      <point x="257" y="526" type="curve" smooth="yes"/>
      <point x="257" y="706" type="line"/>
      <point x="105" y="706" type="line"/>
      <point x="105" y="523" type="line" smooth="yes"/>
      <point x="105" y="224"/>
      <point x="131" y="-20"/>
      <point x="411" y="-20" type="curve" smooth="yes"/>
      <point x="676" y="-20"/>
      <point x="724" y="167"/>
      <point x="724" y="436" type="curve" smooth="yes"/>
      <point x="724" y="668"/>
      <point x="625" y="829"/>
      <point x="511" y="946" type="curve" smooth="yes"/>
      <point x="415" y="1043" type="line" smooth="yes"/>
      <point x="301" y="1161"/>
      <point x="240" y="1202"/>
      <point x="240" y="1371" type="curve" smooth="yes"/>
      <point x="240" y="1567"/>
      <point x="286" y="1654"/>
      <point x="403" y="1654" type="curve" smooth="yes"/>
      <point x="532" y="1654"/>
      <point x="542" y="1517"/>
      <point x="542" y="1253" type="curve" smooth="yes"/>
      <point x="542" y="1143" type="line"/>
      <point x="695" y="1143" type="line"/>
      <point x="695" y="1242" type="line" smooth="yes"/>
      <point x="695" y="1545"/>
      <point x="691" y="1782"/>
      <point x="402" y="1782" type="curve" smooth="yes"/>
    </contour>
    <contour>
      <point x="394" y="1760" type="move" name="top"/>
    </contour>
    <contour>
      <point x="397" y="0" type="move" name="bottom"/>
    </contour>
  </outline>
</glyph>
<glyph name="U" format="1">
  <advance width="911"/>
  <unicode hex="0055"/>
  <outline>
    <contour>
      <point x="616" y="1760" type="line"/>
      <point x="616" y="456" type="line" smooth="yes"/>
      <point x="616" y="227"/>
      <point x="616" y="102"/>
      <point x="458" y="102" type="curve" smooth="yes"/>
      <point x="301" y="102"/>
      <point x="295" y="228"/>
      <point x="295" y="457" type="curve" smooth="yes"/>
      <point x="295" y="1760" type="line"/>
      <point x="146" y="1760" type="line"/>
      <point x="146" y="452" type="line" smooth="yes"/>
      <point x="146" y="132"/>
      <point x="208" y="-21"/>
      <point x="457" y="-21" type="curve" smooth="yes"/>
      <point x="706" y="-21"/>
      <point x="765" y="132"/>
      <point x="765" y="452" type="curve" smooth="yes"/>
      <point x="765" y="1760" type="line"/>
    </contour>
    <contour>
      <point x="619" y="10" type="move" name="ogonek"/>
    </contour>
    <contour>
      <point x="455" y="1761" type="move" name="top"/>
    </contour>
  </outline>
</glyph>
<glyph name="W" format="1">
  <advance width="1338"/>
  <unicode hex="0057"/>
  <outline>
    <contour>
      <point x="1127" y="1760" type="line"/>
      <point x="979" y="322" type="line"/>
      <point x="744" y="1760" type="line"/>
      <point x="620" y="1760" type="line"/>
      <point x="400" y="322" type="line"/>
      <point x="216" y="1760" type="line"/>
      <point x="70" y="1760" type="line"/>
      <point x="319" y="0" type="line"/>
      <point x="456" y="0" type="line"/>
      <point x="690" y="1448" type="line"/>
      <point x="908" y="0" type="line"/>
      <point x="1055" y="0" type="line"/>
      <point x="1268" y="1760" type="line"/>
    </contour>
    <contour>
      <point x="679" y="1760" type="move" name="top"/>
    </contour>
  </outline>
</glyph>
<glyph name="X" format="1">
  <advance width="754"/>
  <unicode hex="0058"/>
  <outline>
    <contour>
      <point x="557" y="1760" type="line"/>
      <point x="358" y="950" type="line"/>
      <point x="315" y="950" type="line"/>
      <point x="74" y="0" type="line"/>
      <point x="198" y="0" type="line"/>
      <point x="398" y="797" type="line"/>
      <point x="447" y="804" type="line"/>
      <point x="681" y="1760" type="line"/>
    </contour>
    <contour>
      <point x="89" y="1760" type="line"/>
      <point x="545" y="0" type="line"/>
      <point x="678" y="0" type="line"/>
      <point x="226" y="1760" type="line"/>
    </contour>
  </outline>
</glyph>
<glyph name="Y" format="1">
  <advance width="802"/>
  <unicode hex="0059"/>
  <outline>
    <contour>
      <point x="624" y="1760" type="line"/>
      <point x="418" y="982" type="line"/>
      <point x="415" y="982" type="line"/>
      <point x="174" y="1760" type="line"/>
      <point x="24" y="1760" type="line"/>
      <point x="342" y="772" type="line"/>
      <point x="342" y="0" type="line"/>
      <point x="491" y="0" type="line"/>
      <point x="491" y="773" type="line"/>
      <point x="778" y="1760" type="line"/>
    </contour>
    <contour>
      <point x="409" y="1760" type="move" name="top"/>
    </contour>
  </outline>
</glyph>
<glyph name="asciicircum" format="1">
  <advance width="1030"/>
  <unicode hex="005E"/>
  <outline>
    <contour>
      <point x="411" y="1500" type="line"/>
      <point x="170" y="577" type="line"/>
      <point x="321" y="577" type="line"/>
      <point x="515" y="1388" type="line"/>
      <point x="709" y="577" type="line"/>
      <point x="858" y="577" type="line"/>
      <point x="617" y="1500" type="line"/>
    </contour>
  </outline>
</glyph>
<glyph name="b" format="1">
  <advance width="874"/>
  <unicode hex="0062"/>
  <outline>
    <contour>
      <point x="160" y="1783" type="line"/>
      <point x="160" y="0" type="line"/>
      <point x="309" y="0" type="line"/>
      <point x="309" y="114" type="line"/>
      <point x="350" y="19"/>
      <point x="433" y="-11"/>
      <point x="510" y="-11" type="curve" smooth="yes"/>
      <point x="717" y="-11"/>
      <point x="746" y="204"/>
      <point x="746" y="490" type="curve" smooth="yes"/>
      <point x="746" y="1012" type="line" smooth="yes"/>
      <point x="746" y="1297"/>
      <point x="708" y="1528"/>
      <point x="480" y="1518" type="curve" smooth="yes"/>
      <point x="407" y="1515"/>
      <point x="324" y="1455"/>
      <point x="309" y="1372" type="curve"/>
      <point x="309" y="1783" type="line"/>
    </contour>
    <contour>
      <point x="585" y="1386"/>
      <point x="597" y="1258"/>
      <point x="597" y="1061" type="curve" smooth="yes"/>
      <point x="597" y="466" type="line" smooth="yes"/>
      <point x="597" y="214"/>
      <point x="569" y="116"/>
      <point x="460" y="115" type="curve" smooth="yes"/>
      <point x="335" y="115"/>
      <point x="309" y="221"/>
      <point x="309" y="460" type="curve" smooth="yes"/>
      <point x="309" y="1059" type="line" smooth="yes"/>
      <point x="309" y="1352"/>
      <point x="371" y="1386"/>
      <point x="467" y="1386" type="curve" smooth="yes"/>
    </contour>
    <contour>
      <point x="483" y="1760" type="move" name="top"/>
    </contour>
  </outline>
</glyph>
<glyph name="g" format="1">
  <advance width="860"/>
  <unicode hex="0067"/>
  <outline>
    <contour>
      <point x="201" y="1522"/>
      <point x="126" y="1299"/>
      <point x="126" y="1013" type="curve" smooth="yes"/>
      <point x="126" y="632" type="line" smooth="yes"/>
      <point x="126" y="345"/>
      <point x="170" y="127"/>
      <point x="379" y="127" type="curve" smooth="yes"/>
      <point x="453" y="127"/>
      <point x="520" y="148"/>
      <point x="563" y="245" type="curve"/>
      <point x="563" y="80" type="line" smooth="yes"/>
      <point x="563" y="-33"/>
      <point x="509" y="-101"/>
      <point x="425" y="-105" type="curve" smooth="yes"/>
      <point x="312" y="-109"/>
      <point x="237" y="-68"/>
      <point x="189" y="-32" type="curve"/>
      <point x="132" y="-147" type="line"/>
      <point x="197" y="-197"/>
      <point x="311" y="-238"/>
      <point x="421" y="-232" type="curve" smooth="yes"/>
      <point x="671" y="-220"/>
      <point x="712" y="-11"/>
      <point x="712" y="97" type="curve" smooth="yes"/>
      <point x="712" y="1500" type="line"/>
      <point x="563" y="1500" type="line"/>
      <point x="563" y="1412" type="line"/>
      <point x="534" y="1489"/>
      <point x="471" y="1517"/>
      <point x="404" y="1518" type="curve" smooth="yes"/>
    </contour>
    <contour>
      <point x="544" y="1387"/>
      <point x="563" y="1280"/>
      <point x="563" y="1050" type="curve" smooth="yes"/>
      <point x="563" y="614" type="line" smooth="yes"/>
      <point x="563" y="314"/>
      <point x="523" y="255"/>
      <point x="434" y="255" type="curve" smooth="yes"/>
      <point x="307" y="255"/>
      <point x="275" y="364"/>
      <point x="275" y="611" type="curve" smooth="yes"/>
      <point x="275" y="1052" type="line" smooth="yes"/>
      <point x="275" y="1251"/>
      <point x="289" y="1387"/>
      <point x="422" y="1387" type="curve" smooth="yes"/>
    </contour>
    <contour>
      <point x="450" y="1500" type="move" name="top"/>
    </contour>
  </outline>
</glyph>
<glyph name="h" format="1">
  <advance width="923"/>
  <unicode hex="0068"/>
  <outline>
    <contour>
      <point x="160" y="1783" type="line"/>
      <point x="160" y="0" type="line"/>
      <point x="309" y="0" type="line"/>
      <point x="309" y="1191" type="line" smooth="yes"/>
      <point x="309" y="1340"/>
      <point x="402" y="1381"/>
      <point x="485" y="1381" type="curve" smooth="yes"/>
      <point x="565" y="1381"/>
      <point x="623" y="1346"/>
      <point x="623" y="1201" type="curve" smooth="yes"/>
      <point x="623" y="0" type="line"/>
      <point x="773" y="0" type="line"/>
      <point x="773" y="1211" type="line" smooth="yes"/>
      <point x="773" y="1425"/>
      <point x="681" y="1519"/>
      <point x="553" y="1519" type="curve" smooth="yes"/>
      <point x="436" y="1519"/>
      <point x="335" y="1438"/>
      <point x="309" y="1353" type="curve"/>
      <point x="309" y="1783" type="line"/>
    </contour>
    <contour>
      <point x="240" y="1634" type="move" name="center"/>
    </contour>
    <contour>
      <point x="457" y="1760" type="move" name="top"/>
    </contour>
  </outline>
</glyph>
<glyph name="k" format="1">
  <advance width="799"/>
  <unicode hex="006B"/>
  <outline>
    <contour>
      <point x="641" y="1500" type="line"/>
      <point x="306" y="751" type="line"/>
      <point x="652" y="0" type="line"/>
      <point x="808" y="0" type="line"/>
      <point x="449" y="756" type="line"/>
      <point x="790" y="1500" type="line"/>
    </contour>
    <contour>
      <point x="161" y="1783" type="line"/>
      <point x="161" y="0" type="line"/>
      <point x="310" y="0" type="line"/>
      <point x="310" y="1783" type="line"/>
    </contour>
    <contour>
      <point x="400" y="0" type="move" name="bottom"/>
    </contour>
  </outline>
</glyph>
<glyph name="m" format="1">
  <advance width="1362"/>
  <unicode hex="006D"/>
  <outline>
    <contour>
      <point x="424" y="1519"/>
      <point x="334" y="1436"/>
      <point x="309" y="1351" type="curve"/>
      <point x="309" y="1500" type="line"/>
      <point x="160" y="1500" type="line"/>
      <point x="160" y="0" type="line"/>
      <point x="309" y="0" type="line"/>
      <point x="309" y="1209" type="line" smooth="yes"/>
      <point x="309" y="1324"/>
      <point x="370" y="1381"/>
      <point x="475" y="1381" type="curve" smooth="yes"/>
      <point x="554" y="1381"/>
      <point x="611" y="1348"/>
      <point x="611" y="1226" type="curve" smooth="yes"/>
      <point x="611" y="0" type="line"/>
      <point x="760" y="0" type="line"/>
      <point x="760" y="1217" type="line" smooth="yes"/>
      <point x="760" y="1420"/>
      <point x="671" y="1519"/>
      <point x="538" y="1519" type="curve" smooth="yes"/>
    </contour>
    <contour>
      <point x="877" y="1519"/>
      <point x="775" y="1448"/>
      <point x="731" y="1351" type="curve" smooth="yes"/>
      <point x="759" y="1218" type="line"/>
      <point x="759" y="1363"/>
      <point x="842" y="1381"/>
      <point x="925" y="1381" type="curve" smooth="yes"/>
      <point x="1006" y="1381"/>
      <point x="1062" y="1345"/>
      <point x="1062" y="1226" type="curve" smooth="yes"/>
      <point x="1062" y="0" type="line"/>
      <point x="1212" y="0" type="line"/>
      <point x="1212" y="1217" type="line" smooth="yes"/>
      <point x="1212" y="1429"/>
      <point x="1117" y="1519"/>
      <point x="993" y="1519" type="curve" smooth="yes"/>
    </contour>
    <contour>
      <point x="730" y="1500" type="move" name="top"/>
    </contour>
  </outline>
</glyph>
<glyph name="p" format="1">
  <advance width="873"/>
  <unicode hex="0070"/>
  <outline>
    <contour>
      <point x="430" y="1511"/>
      <point x="350" y="1482"/>
      <point x="309" y="1385" type="curve"/>
      <point x="309" y="1500" type="line"/>
      <point x="160" y="1500" type="line"/>
      <point x="160" y="-265" type="line"/>
      <point x="309" y="-265" type="line"/>
      <point x="309" y="108" type="line"/>
      <point x="335" y="40"/>
      <point x="398" y="-18"/>
      <point x="469" y="-18" type="curve" smooth="yes"/>
      <point x="693" y="-18"/>
      <point x="745" y="194"/>
      <point x="745" y="475" type="curve" smooth="yes"/>
      <point x="745" y="1013" type="line" smooth="yes"/>
      <point x="745" y="1298"/>
      <point x="713" y="1511"/>
      <point x="508" y="1511" type="curve" smooth="yes"/>
    </contour>
    <contour>
      <point x="585" y="1386"/>
      <point x="596" y="1259"/>
      <point x="596" y="1061" type="curve" smooth="yes"/>
      <point x="596" y="468" type="line" smooth="yes"/>
      <point x="596" y="214"/>
      <point x="570" y="116"/>
      <point x="461" y="115" type="curve" smooth="yes"/>
      <point x="335" y="115"/>
      <point x="309" y="222"/>
      <point x="309" y="463" type="curve" smooth="yes"/>
      <point x="309" y="1059" type="line" smooth="yes"/>
      <point x="309" y="1351"/>
      <point x="370" y="1386"/>
      <point x="467" y="1386" type="curve" smooth="yes"/>
    </contour>
    <contour>
      <point x="447" y="1500" type="move" name="top"/>
    </contour>
  </outline>
</glyph>
<glyph name="q" format="1">
  <advance width="858"/>
  <unicode hex="0071"/>
  <outline>
    <contour>
      <point x="157" y="1511"/>
      <point x="128" y="1298"/>
      <point x="128" y="1013" type="curve" smooth="yes"/>
      <point x="128" y="479" type="line" smooth="yes"/>
      <point x="128" y="198"/>
      <point x="178" y="-18"/>
      <point x="404" y="-18" type="curve" smooth="yes"/>
      <point x="475" y="-18"/>
      <point x="537" y="39"/>
      <point x="565" y="106" type="curve"/>
      <point x="565" y="-265" type="line"/>
      <point x="715" y="-265" type="line"/>
      <point x="715" y="1500" type="line"/>
      <point x="565" y="1500" type="line"/>
      <point x="565" y="1381" type="line"/>
      <point x="524" y="1480"/>
      <point x="442" y="1511"/>
      <point x="364" y="1511" type="curve" smooth="yes"/>
    </contour>
    <contour>
      <point x="540" y="1385"/>
      <point x="564" y="1276"/>
      <point x="564" y="1037" type="curve" smooth="yes"/>
      <point x="564" y="441" type="line" smooth="yes"/>
      <point x="564" y="147"/>
      <point x="502" y="114"/>
      <point x="406" y="114" type="curve" smooth="yes"/>
      <point x="288" y="114"/>
      <point x="276" y="241"/>
      <point x="276" y="437" type="curve" smooth="yes"/>
      <point x="276" y="1031" type="line" smooth="yes"/>
      <point x="276" y="1286"/>
      <point x="303" y="1384"/>
      <point x="412" y="1385" type="curve" smooth="yes"/>
    </contour>
  </outline>
</glyph>
<glyph name="s" format="1">
  <advance width="757"/>
  <unicode hex="0073"/>
  <outline>
    <contour>
      <point x="213" y="1518"/>
      <point x="92" y="1409"/>
      <point x="92" y="1180" type="curve" smooth="yes"/>
      <point x="92" y="1029"/>
      <point x="166" y="883"/>
      <point x="293" y="754" type="curve"/>
      <point x="372" y="674" type="line"/>
      <point x="481" y="563"/>
      <point x="528" y="446"/>
      <point x="528" y="334" type="curve" smooth="yes"/>
      <point x="528" y="168"/>
      <point x="489" y="116"/>
      <point x="392" y="116" type="curve" smooth="yes"/>
      <point x="297" y="116"/>
      <point x="254" y="230"/>
      <point x="254" y="433" type="curve" smooth="yes"/>
      <point x="254" y="536" type="line"/>
      <point x="101" y="536" type="line"/>
      <point x="101" y="407" type="line" smooth="yes"/>
      <point x="101" y="108"/>
      <point x="196" y="-20"/>
      <point x="405" y="-20" type="curve" smooth="yes"/>
      <point x="597" y="-20"/>
      <point x="682" y="121"/>
      <point x="682" y="325" type="curve" smooth="yes"/>
      <point x="682" y="485"/>
      <point x="612" y="635"/>
      <point x="483" y="764" type="curve" smooth="yes"/>
      <point x="406" y="839" type="line" smooth="yes"/>
      <point x="289" y="952"/>
      <point x="239" y="1074"/>
      <point x="243" y="1186" type="curve" smooth="yes"/>
      <point x="248" y="1335"/>
      <point x="293" y="1381"/>
      <point x="386" y="1381" type="curve" smooth="yes"/>
      <point x="476" y="1381"/>
      <point x="506" y="1267"/>
      <point x="506" y="1064" type="curve" smooth="yes"/>
      <point x="506" y="957" type="line"/>
      <point x="661" y="957" type="line"/>
      <point x="661" y="1037" type="line" smooth="yes"/>
      <point x="661" y="1386"/>
      <point x="577" y="1518"/>
      <point x="385" y="1518" type="curve" smooth="yes"/>
    </contour>
    <contour>
      <point x="398" y="1500" type="move" name="top"/>
    </contour>
    <contour>
      <point x="379" y="0" type="move" name="bottom"/>
    </contour>
  </outline>
</glyph>
<glyph name="w" format="1">
  <advance width="1075"/>
  <unicode hex="0077"/>
  <outline>
    <contour>
      <point x="476" y="1500" type="line"/>
      <point x="350" y="614" type="line"/>
      <point x="320" y="302" type="line"/>
      <point x="308" y="302" type="line"/>
      <point x="284" y="613" type="line"/>
      <point x="194" y="1500" type="line"/>
      <point x="57" y="1500" type="line"/>
      <point x="233" y="0" type="line"/>
      <point x="375" y="0" type="line"/>
      <point x="577" y="1500" type="line"/>
    </contour>
    <contour>
      <point x="885" y="1500" type="line"/>
      <point x="810" y="648" type="line"/>
      <point x="790" y="302" type="line"/>
      <point x="780" y="302" type="line"/>
      <point x="740" y="646" type="line"/>
      <point x="603" y="1500" type="line"/>
      <point x="523" y="1500" type="line"/>
      <point x="695" y="0" type="line"/>
      <point x="843" y="0" type="line"/>
      <point x="1017" y="1500" type="line"/>
    </contour>
    <contour>
      <point x="547" y="1500" type="move" name="top"/>
    </contour>
  </outline>
</glyph>
<glyph name="y" format="1">
  <advance width="733"/>
  <unicode hex="0079"/>
  <outline>
    <contour>
      <point x="541" y="1500" type="line"/>
      <point x="434" y="707" type="line"/>
      <point x="391" y="299" type="line"/>
      <point x="378" y="299" type="line"/>
      <point x="330" y="707" type="line"/>
      <point x="211" y="1500" type="line"/>
      <point x="61" y="1500" type="line"/>
      <point x="311" y="38" type="line" smooth="yes"/>
      <point x="321" y="-26"/>
      <point x="330" y="-76"/>
      <point x="308" y="-99" type="curve" smooth="yes"/>
      <point x="296" y="-107"/>
      <point x="241" y="-110"/>
      <point x="185" y="-110" type="curve" smooth="yes"/>
      <point x="130" y="-110" type="line"/>
      <point x="130" y="-238" type="line"/>
      <point x="254" y="-238" type="line" smooth="yes"/>
      <point x="408" y="-238"/>
      <point x="423" y="-178"/>
      <point x="451" y="3" type="curve" smooth="yes"/>
      <point x="690" y="1500" type="line"/>
    </contour>
    <contour>
      <point x="377" y="1500" type="move" name="top"/>
    </contour>
  </outline>
</glyph>
<glyph name="asciitilde" format="1">
  <advance width="1117"/>
  <unicode hex="007E"/>
  <outline>
    <contour>
      <point x="814" y="1070"/>
      <point x="781" y="1028"/>
      <point x="735" y="1022" type="curve" smooth="yes"/>
      <point x="671" y="1022"/>
      <point x="439" y="1101"/>
      <point x="335" y="1101" type="curve" smooth="yes"/>
      <point x="247" y="1101"/>
      <point x="173" y="1039"/>
      <point x="121" y="915" type="curve"/>
      <point x="249" y="840" type="line"/>
      <point x="275" y="901"/>
      <point x="311" y="933"/>
      <point x="344" y="933" type="curve" smooth="yes"/>
      <point x="450" y="933"/>
      <point x="648" y="853"/>
      <point x="762" y="853" type="curve" smooth="yes"/>
      <point x="860" y="853"/>
      <point x="931" y="911"/>
      <point x="978" y="1098" type="curve"/>
      <point x="835" y="1140" type="line"/>
    </contour>
  </outline>
</glyph>
<glyph name="sterling" format="1">
  <advance width="809"/>
  <unicode hex="00A3"/>
  <outline>
    <contour>
      <point x="606" y="1782"/>
      <point x="473" y="1782" type="curve" smooth="yes"/>
      <point x="265" y="1782"/>
      <point x="162" y="1643"/>
      <point x="162" y="1386" type="curve" smooth="yes"/>
      <point x="162" y="1262"/>
      <point x="186" y="1112"/>
      <point x="233" y="936" type="curve"/>
      <point x="78" y="936" type="line"/>
      <point x="78" y="833" type="line"/>
      <point x="261" y="833" type="line"/>
      <point x="273" y="771"/>
      <point x="280" y="698"/>
      <point x="280" y="633" type="curve" smooth="yes"/>
      <point x="280" y="308"/>
      <point x="226" y="158"/>
      <point x="62" y="86" type="curve"/>
      <point x="62" y="0" type="line"/>
      <point x="766" y="0" type="line"/>
      <point x="766" y="107" type="line"/>
      <point x="277" y="107" type="line"/>
      <point x="389" y="225"/>
      <point x="415" y="420"/>
      <point x="415" y="583" type="curve" smooth="yes"/>
      <point x="415" y="691"/>
      <point x="404" y="786"/>
      <point x="398" y="833" type="curve"/>
      <point x="684" y="833" type="line"/>
      <point x="684" y="936" type="line"/>
      <point x="378" y="936" type="line"/>
      <point x="323" y="1148"/>
      <point x="300" y="1301"/>
      <point x="300" y="1409" type="curve" smooth="yes"/>
      <point x="300" y="1604"/>
      <point x="374" y="1656"/>
      <point x="464" y="1656" type="curve" smooth="yes"/>
      <point x="565" y="1656"/>
      <point x="642" y="1591"/>
      <point x="642" y="1393" type="curve" smooth="yes"/>
      <point x="642" y="1246" type="line"/>
      <point x="775" y="1246" type="line"/>
      <point x="775" y="1381" type="line" smooth="yes"/>
      <point x="775" y="1710"/>
    </contour>
  </outline>
</glyph>
<glyph name="yen" format="1">
  <advance width="821"/>
  <unicode hex="00A5"/>
  <outline>
    <contour>
      <point x="77" y="824" type="line"/>
      <point x="77" y="741" type="line"/>
      <point x="412" y="741" type="line"/>
      <point x="412" y="544" type="line"/>
      <point x="77" y="544" type="line"/>
      <point x="77" y="462" type="line"/>
      <point x="753" y="462" type="line"/>
      <point x="753" y="544" type="line"/>
      <point x="465" y="544" type="line"/>
      <point x="465" y="741" type="line"/>
      <point x="753" y="741" type="line"/>
      <point x="753" y="824" type="line"/>
    </contour>
    <component base="Y"/>
  </outline>
</glyph>
<glyph name="dieresis" format="1">
  <advance width="976"/>
  <unicode hex="00A8"/>
  <outline>
    <contour>
      <point x="585" y="95" type="line"/>
      <point x="585" y="-38" type="line"/>
      <point x="767" y="-38" type="line"/>
      <point x="767" y="95" type="line"/>
    </contour>
    <contour>
      <point x="155" y="95" type="line"/>
      <point x="155" y="-38" type="line"/>
      <point x="337" y="-38" type="line"/>
      <point x="337" y="95" type="line"/>
    </contour>
    <contour>
      <point x="488" y="-150" type="move" name="_top"/>
    </contour>
  </outline>
</glyph>
<glyph name="logicalnot" format="1">
  <advance width="947"/>
  <unicode hex="00AC"/>
  <outline>
    <contour>
      <point x="97" y="858" type="line"/>
      <point x="97" y="743" type="line"/>
      <point x="701" y="743" type="line"/>
      <point x="701" y="439" type="line"/>
      <point x="826" y="439" type="line"/>
      <point x="826" y="858" type="line"/>
    </contour>
  </outline>
</glyph>
<glyph name="registered" format="1">
  <advance width="1502"/>
  <unicode hex="00AE"/>
  <outline>
    <contour>
      <point x="527" y="1298" type="line"/>
      <point x="527" y="446" type="line"/>
      <point x="647" y="446" type="line"/>
      <point x="647" y="864" type="line"/>
      <point x="767" y="864"/>
      <point x="849" y="888"/>
      <point x="849" y="748" type="curve" smooth="yes"/>
      <point x="849" y="446" type="line"/>
      <point x="967" y="446" type="line"/>
      <point x="967" y="787" type="line" smooth="yes"/>
      <point x="967" y="858"/>
      <point x="911" y="900"/>
      <point x="858" y="910" type="curve"/>
      <point x="930" y="933"/>
      <point x="981" y="983"/>
      <point x="981" y="1075" type="curve" smooth="yes"/>
      <point x="981" y="1242"/>
      <point x="885" y="1298"/>
      <point x="740" y="1298" type="curve" smooth="yes"/>
    </contour>
    <contour>
      <point x="818" y="1210"/>
      <point x="863" y="1187"/>
      <point x="863" y="1076" type="curve" smooth="yes"/>
      <point x="863" y="994"/>
      <point x="811" y="951"/>
      <point x="726" y="951" type="curve" smooth="yes"/>
      <point x="648" y="951" type="line"/>
      <point x="648" y="1210" type="line"/>
    </contour>
    <contour>
      <point x="360" y="1519"/>
      <point x="76" y="1235"/>
      <point x="76" y="862" type="curve" smooth="yes"/>
      <point x="76" y="489"/>
      <point x="360" y="205"/>
      <point x="733" y="205" type="curve" smooth="yes"/>
      <point x="1106" y="205"/>
      <point x="1390" y="489"/>
      <point x="1390" y="862" type="curve" smooth="yes"/>
      <point x="1390" y="1235"/>
      <point x="1106" y="1519"/>
      <point x="733" y="1519" type="curve" smooth="yes"/>
    </contour>
    <contour>
      <point x="1059" y="1453"/>
      <point x="1309" y="1191"/>
      <point x="1309" y="862" type="curve" smooth="yes"/>
      <point x="1309" y="533"/>
      <point x="1059" y="271"/>
      <point x="733" y="271" type="curve" smooth="yes"/>
      <point x="407" y="271"/>
      <point x="157" y="533"/>
      <point x="157" y="862" type="curve" smooth="yes"/>
      <point x="157" y="1191"/>
      <point x="407" y="1453"/>
      <point x="733" y="1453" type="curve" smooth="yes"/>
    </contour>
  </outline>
</glyph>
<glyph name="paragraph" format="1">
  <advance width="1119"/>
  <unicode hex="00B6"/>
  <outline>
    <contour>
      <point x="666" y="1761" type="line" smooth="yes"/>
      <point x="263" y="1761"/>
      <point x="159" y="1692"/>
      <point x="159" y="1474" type="curve" smooth="yes"/>
      <point x="159" y="1307"/>
      <point x="268" y="1203"/>
      <point x="473" y="1180" type="curve"/>
      <point x="473" y="0" type="line"/>
      <point x="636" y="0" type="line"/>
      <point x="636" y="1620" type="line"/>
      <point x="779" y="1620" type="line"/>
      <point x="779" y="0" type="line"/>
      <point x="942" y="0" type="line"/>
      <point x="942" y="1761" type="line"/>
    </contour>
  </outline>
</glyph>
<glyph name="periodcentered" format="1">
  <advance width="480"/>
  <unicode hex="00B7"/>
  <outline>
    <contour>
      <point x="163" y="961" type="line"/>
      <point x="163" y="786" type="line"/>
      <point x="333" y="786" type="line"/>
      <point x="333" y="961" type="line"/>
    </contour>
  </outline>
</glyph>
<glyph name="uni00B9" format="1">
  <advance width="626"/>
  <unicode hex="00B9"/>
  <outline>
    <contour>
      <point x="309" y="1759" type="line"/>
      <point x="263" y="1657"/>
      <point x="182" y="1603"/>
      <point x="103" y="1591" type="curve"/>
      <point x="103" y="1517" type="line"/>
      <point x="158" y="1517"/>
      <point x="232" y="1540"/>
      <point x="266" y="1585" type="curve"/>
      <point x="266" y="414" type="line"/>
      <point x="377" y="414" type="line"/>
      <point x="377" y="1759" type="line"/>
    </contour>
  </outline>
</glyph>
<glyph name="ordmasculine" format="1">
  <advance width="908"/>
  <unicode hex="00BA"/>
  <outline>
    <contour>
      <point x="262" y="1607"/>
      <point x="239" y="1432"/>
      <point x="239" y="1205" type="curve" smooth="yes"/>
      <point x="239" y="801" type="line" smooth="yes"/>
      <point x="239" y="552"/>
      <point x="254" y="374"/>
      <point x="477" y="374" type="curve" smooth="yes"/>
      <point x="701" y="374"/>
      <point x="710" y="556"/>
      <point x="710" y="801" type="curve" smooth="yes"/>
      <point x="710" y="1205" type="line" smooth="yes"/>
      <point x="710" y="1433"/>
      <point x="691" y="1607"/>
      <point x="477" y="1607" type="curve" smooth="yes"/>
    </contour>
    <contour>
      <point x="577" y="1502"/>
      <point x="590" y="1392"/>
      <point x="590" y="1234" type="curve" smooth="yes"/>
      <point x="590" y="760" type="line" smooth="yes"/>
      <point x="590" y="592"/>
      <point x="578" y="478"/>
      <point x="477" y="478" type="curve" smooth="yes"/>
      <point x="368" y="478"/>
      <point x="358" y="591"/>
      <point x="358" y="760" type="curve" smooth="yes"/>
      <point x="358" y="1234" type="line" smooth="yes"/>
      <point x="358" y="1392"/>
      <point x="369" y="1502"/>
      <point x="477" y="1502" type="curve" smooth="yes"/>
    </contour>
  </outline>
</glyph>
<glyph name="threequarters" format="1">
  <advance width="1555"/>
  <unicode hex="00BE"/>
  <outline>
    <contour>
      <point x="1013" y="1768" type="line"/>
      <point x="554" y="0" type="line"/>
      <point x="673" y="0" type="line"/>
      <point x="1133" y="1768" type="line"/>
    </contour>
    <contour>
      <point x="208" y="1800"/>
      <point x="156" y="1690"/>
      <point x="156" y="1481" type="curve" smooth="yes"/>
      <point x="156" y="1457" type="line"/>
      <point x="261" y="1457" type="line"/>
      <point x="261" y="1456"/>
      <point x="261" y="1481"/>
      <point x="261" y="1480" type="curve" smooth="yes"/>
      <point x="261" y="1671"/>
      <point x="301" y="1711"/>
      <point x="362" y="1711" type="curve" smooth="yes"/>
      <point x="426" y="1711"/>
      <point x="478" y="1680"/>
      <point x="478" y="1482" type="curve" smooth="yes"/>
      <point x="478" y="1271"/>
      <point x="435" y="1244"/>
      <point x="334" y="1244" type="curve" smooth="yes"/>
      <point x="334" y="1244"/>
      <point x="302" y="1244"/>
      <point x="303" y="1244" type="curve"/>
      <point x="303" y="1157" type="line"/>
      <point x="302" y="1157"/>
      <point x="335" y="1157"/>
      <point x="334" y="1157" type="curve" smooth="yes"/>
      <point x="437" y="1157"/>
      <point x="480" y="1100"/>
      <point x="480" y="892" type="curve" smooth="yes"/>
      <point x="480" y="704"/>
      <point x="455" y="638"/>
      <point x="364" y="638" type="curve" smooth="yes"/>
      <point x="272" y="638"/>
      <point x="257" y="694"/>
      <point x="257" y="893" type="curve" smooth="yes"/>
      <point x="257" y="924" type="line"/>
      <point x="152" y="924" type="line"/>
      <point x="152" y="893" type="line" smooth="yes"/>
      <point x="152" y="662"/>
      <point x="207" y="551"/>
      <point x="363" y="551" type="curve" smooth="yes"/>
      <point x="518" y="551"/>
      <point x="585" y="660"/>
      <point x="585" y="890" type="curve" smooth="yes"/>
      <point x="585" y="1025"/>
      <point x="547" y="1160"/>
      <point x="461" y="1199" type="curve"/>
      <point x="549" y="1232"/>
      <point x="583" y="1341"/>
      <point x="583" y="1481" type="curve" smooth="yes"/>
      <point x="583" y="1691"/>
      <point x="520" y="1800"/>
      <point x="364" y="1800" type="curve" smooth="yes"/>
    </contour>
    <contour>
      <point x="1208" y="326" type="line"/>
      <point x="1027" y="326" type="line"/>
      <point x="1208" y="989" type="line"/>
    </contour>
    <contour>
      <point x="1212" y="1224" type="line"/>
      <point x="936" y="314" type="line"/>
      <point x="936" y="244" type="line"/>
      <point x="1208" y="244" type="line"/>
      <point x="1208" y="0" type="line"/>
      <point x="1304" y="0" type="line"/>
      <point x="1304" y="244" type="line"/>
      <point x="1413" y="244" type="line"/>
      <point x="1413" y="326" type="line"/>
      <point x="1304" y="326" type="line"/>
      <point x="1304" y="1224" type="line"/>
    </contour>
  </outline>
</glyph>
<glyph name="AE" format="1">
  <advance width="1168"/>
  <unicode hex="00C6"/>
  <outline>
    <contour>
      <point x="465" y="1760" type="line"/>
      <point x="75" y="0" type="line"/>
      <point x="215" y="0" type="line"/>
      <point x="291" y="357" type="line"/>
      <point x="583" y="357" type="line"/>
      <point x="583" y="0" type="line"/>
      <point x="1054" y="0" type="line"/>
      <point x="1054" y="118" type="line"/>
      <point x="732" y="118" type="line"/>
      <point x="732" y="836" type="line"/>
      <point x="1038" y="836" type="line"/>
      <point x="1038" y="956" type="line"/>
      <point x="732" y="956" type="line"/>
      <point x="732" y="1644" type="line"/>
      <point x="1057" y="1644" type="line"/>
      <point x="1057" y="1760" type="line"/>
    </contour>
    <contour>
      <point x="583" y="483" type="line"/>
      <point x="320" y="483" type="line"/>
      <point x="565" y="1645" type="line"/>
      <point x="583" y="1646" type="line"/>
    </contour>
    <contour>
      <point x="685" y="0" type="move" name="top"/>
    </contour>
  </outline>
</glyph>
<glyph name="eth" format="1">
  <advance width="926"/>
  <unicode hex="00F0"/>
  <outline>
    <contour>
      <point x="295" y="1640" type="line"/>
      <point x="371" y="1644"/>
      <point x="473" y="1619"/>
      <point x="545" y="1534" type="curve"/>
      <point x="320" y="1399" type="line"/>
      <point x="373" y="1299" type="line"/>
      <point x="598" y="1434" type="line"/>
      <point x="610" y="1392"/>
      <point x="618" y="1000"/>
      <point x="618" y="1009" type="curve"/>
      <point x="575" y="1070"/>
      <point x="494" y="1101"/>
      <point x="435" y="1103" type="curve" smooth="yes"/>
      <point x="183" y="1114"/>
      <point x="113" y="959"/>
      <point x="113" y="557" type="curve" smooth="yes"/>
      <point x="113" y="442" type="line" smooth="yes"/>
      <point x="113" y="145"/>
      <point x="179" y="-20"/>
      <point x="433" y="-20" type="curve" smooth="yes"/>
      <point x="706" y="-20"/>
      <point x="765" y="212"/>
      <point x="765" y="506" type="curve" smooth="yes"/>
      <point x="765" y="958" type="line"/>
      <point x="765" y="926"/>
      <point x="755" y="1456"/>
      <point x="734" y="1516" type="curve"/>
      <point x="933" y="1635" type="line"/>
      <point x="880" y="1735" type="line"/>
      <point x="680" y="1616" type="line"/>
      <point x="591" y="1732"/>
      <point x="452" y="1783"/>
      <point x="295" y="1780" type="curve"/>
    </contour>
    <contour>
      <point x="521" y="978"/>
      <point x="597" y="930"/>
      <point x="616" y="926" type="curve"/>
      <point x="616" y="505" type="line" smooth="yes"/>
      <point x="616" y="227"/>
      <point x="583" y="107"/>
      <point x="433" y="107" type="curve" smooth="yes"/>
      <point x="299" y="107"/>
      <point x="262" y="170"/>
      <point x="262" y="446" type="curve" smooth="yes"/>
      <point x="262" y="545" type="line" smooth="yes"/>
      <point x="262" y="869"/>
      <point x="291" y="978"/>
      <point x="427" y="978" type="curve" smooth="yes"/>
    </contour>
  </outline>
</glyph>
<glyph name="dotlessi" format="1">
  <advance width="474"/>
  <unicode hex="0131"/>
  <outline>
    <contour>
      <point x="162" y="1500" type="line"/>
      <point x="162" y="0" type="line"/>
      <point x="312" y="0" type="line"/>
      <point x="312" y="1500" type="line"/>
    </contour>
    <contour>
      <point x="395" y="10" type="move" name="ogonek"/>
    </contour>
    <contour>
      <point x="227" y="1500" type="move" name="top"/>
    </contour>
  </outline>
</glyph>
<glyph name="kgreenlandic" format="1">
  <advance width="799"/>
  <unicode hex="0138"/>
  <outline>
    <contour>
      <point x="641" y="1500" type="line"/>
      <point x="306" y="751" type="line"/>
      <point x="652" y="0" type="line"/>
      <point x="808" y="0" type="line"/>
      <point x="449" y="756" type="line"/>
      <point x="790" y="1500" type="line"/>
    </contour>
    <contour>
      <point x="161" y="1500" type="line"/>
      <point x="161" y="0" type="line"/>
      <point x="310" y="0" type="line"/>
      <point x="310" y="1500" type="line"/>
    </contour>
  </outline>
</glyph>
<glyph name="Lcaron" format="1">
  <advance width="708"/>
  <unicode hex="013D"/>
  <outline>
    <contour>
      <point x="589" y="1764" type="line"/>
      <point x="589" y="1571" type="line"/>
      <point x="689" y="1571" type="line"/>
      <point x="647" y="1298" type="line"/>
      <point x="708" y="1298" type="line"/>
      <point x="787" y="1580" type="line"/>
      <point x="787" y="1764" type="line"/>
    </contour>
    <component base="L"/>
  </outline>
</glyph>
<glyph name="OE" format="1">
  <advance width="1189"/>
  <unicode hex="0152"/>
  <outline>
    <contour>
      <point x="449" y="1760" type="line" smooth="yes"/>
      <point x="167" y="1760"/>
      <point x="130" y="1572"/>
      <point x="130" y="1269" type="curve" smooth="yes"/>
      <point x="130" y="519" type="line" smooth="yes"/>
      <point x="130" y="151"/>
      <point x="187" y="0"/>
      <point x="442" y="0" type="curve" smooth="yes"/>
      <point x="1076" y="0" type="line"/>
      <point x="1076" y="118" type="line"/>
      <point x="751" y="118" type="line"/>
      <point x="751" y="836" type="line"/>
      <point x="1059" y="836" type="line"/>
      <point x="1059" y="956" type="line"/>
      <point x="751" y="956" type="line"/>
      <point x="751" y="1644" type="line"/>
      <point x="1078" y="1644" type="line"/>
      <point x="1078" y="1760" type="line"/>
    </contour>
    <contour>
      <point x="602" y="126" type="line"/>
      <point x="442" y="126" type="line"/>
      <point x="308" y="127"/>
      <point x="279" y="195"/>
      <point x="279" y="518" type="curve" smooth="yes"/>
      <point x="279" y="1282" type="line" smooth="yes"/>
      <point x="279" y="1544"/>
      <point x="315" y="1634"/>
      <point x="449" y="1634" type="curve" smooth="yes"/>
      <point x="602" y="1634" type="line"/>
    </contour>
    <contour>
      <point x="656" y="0" type="move" name="top"/>
    </contour>
  </outline>
</glyph>
<glyph name="oe" format="1">
  <advance width="1755"/>
  <unicode hex="0153"/>
  <outline>
    <contour>
      <point x="769" y="1518"/>
      <point x="700" y="1467"/>
      <point x="655" y="1396" type="curve"/>
      <point x="613" y="1467"/>
      <point x="544" y="1518"/>
      <point x="437" y="1518" type="curve" smooth="yes"/>
      <point x="168" y="1518"/>
      <point x="140" y="1300"/>
      <point x="140" y="1018" type="curve" smooth="yes"/>
      <point x="140" y="515" type="line" smooth="yes"/>
      <point x="140" y="204"/>
      <point x="160" y="-18"/>
      <point x="437" y="-18" type="curve" smooth="yes"/>
      <point x="539" y="-18"/>
      <point x="605" y="34"/>
      <point x="648" y="106" type="curve"/>
      <point x="692" y="33"/>
      <point x="760" y="-18"/>
      <point x="871" y="-18" type="curve" smooth="yes"/>
      <point x="1146" y="-18"/>
      <point x="1144" y="202"/>
      <point x="1144" y="505" type="curve" smooth="yes"/>
      <point x="1144" y="556" type="line"/>
      <point x="999" y="556" type="line"/>
      <point x="999" y="556"/>
      <point x="999" y="433"/>
      <point x="999" y="439" type="curve" smooth="yes"/>
      <point x="999" y="231"/>
      <point x="992" y="113"/>
      <point x="870" y="113" type="curve" smooth="yes"/>
      <point x="739" y="113"/>
      <point x="728" y="220"/>
      <point x="728" y="450" type="curve" smooth="yes"/>
      <point x="728" y="449"/>
      <point x="728" y="754"/>
      <point x="728" y="754" type="curve"/>
      <point x="1149" y="754" type="line"/>
      <point x="1149" y="748"/>
      <point x="1149" y="1002"/>
      <point x="1149" y="1002" type="curve" smooth="yes"/>
      <point x="1149" y="1292"/>
      <point x="1145" y="1518"/>
      <point x="876" y="1518" type="curve" smooth="yes"/>
    </contour>
    <contour>
      <point x="562" y="1388"/>
      <point x="579" y="1250"/>
      <point x="579" y="1053" type="curve" smooth="yes"/>
      <point x="579" y="463" type="line" smooth="yes"/>
      <point x="579" y="253"/>
      <point x="562" y="113"/>
      <point x="437" y="113" type="curve" smooth="yes"/>
      <point x="304" y="113"/>
      <point x="289" y="253"/>
      <point x="289" y="463" type="curve" smooth="yes"/>
      <point x="289" y="1053" type="line" smooth="yes"/>
      <point x="289" y="1250"/>
      <point x="303" y="1388"/>
      <point x="437" y="1388" type="curve" smooth="yes"/>
    </contour>
    <contour>
      <point x="1003" y="1387"/>
      <point x="1000" y="1273"/>
      <point x="1000" y="1068" type="curve" smooth="yes"/>
      <point x="1000" y="874" type="line"/>
      <point x="729" y="874" type="line"/>
      <point x="729" y="871"/>
      <point x="729" y="1065"/>
      <point x="729" y="1063" type="curve" smooth="yes"/>
      <point x="729" y="1259"/>
      <point x="747" y="1387"/>
      <point x="878" y="1387" type="curve" smooth="yes"/>
    </contour>
    <contour>
      <point x="757" y="0" type="move" name="top"/>
    </contour>
  </outline>
</glyph>
<glyph name="caron" format="1">
  <advance width="970"/>
  <unicode hex="02C7"/>
  <outline>
    <contour>
      <point x="571" y="1830" type="line"/>
      <point x="485" y="1655" type="line"/>
      <point x="399" y="1830" type="line"/>
      <point x="281" y="1830" type="line"/>
      <point x="402" y="1577" type="line"/>
      <point x="568" y="1577" type="line"/>
      <point x="688" y="1830" type="line"/>
    </contour>
    <contour>
      <point x="485" y="1500" type="move" name="_top"/>
    </contour>
  </outline>
</glyph>
<glyph name="tilde" format="1">
  <advance width="1117"/>
  <unicode hex="02DC"/>
  <outline>
    <contour>
      <point x="370" y="170"/>
      <point x="305" y="170"/>
      <point x="266" y="35" type="curve"/>
      <point x="359" y="-11" type="line"/>
      <point x="377" y="24"/>
      <point x="388" y="43"/>
      <point x="410" y="48" type="curve"/>
      <point x="417" y="50"/>
      <point x="425" y="50"/>
      <point x="433" y="50" type="curve" smooth="yes"/>
      <point x="516" y="50"/>
      <point x="611" y="-32"/>
      <point x="699" y="-32" type="curve" smooth="yes"/>
      <point x="763" y="-32"/>
      <point x="799" y="-16"/>
      <point x="840" y="113" type="curve" smooth="yes"/>
      <point x="849" y="139" type="line"/>
      <point x="744" y="167" type="line"/>
      <point x="723" y="107"/>
      <point x="707" y="99"/>
      <point x="688" y="96" type="curve"/>
      <point x="684" y="96" type="line" smooth="yes"/>
      <point x="634" y="96"/>
      <point x="515" y="170"/>
      <point x="434" y="170" type="curve" smooth="yes"/>
    </contour>
    <contour>
      <point x="558" y="-150" type="move" name="_top"/>
    </contour>
  </outline>
</glyph>
<glyph name="uni0307" format="1">
  <advance width="572"/>
  <unicode hex="0307"/>
  <outline>
    <contour>
      <point x="147" y="260" type="line"/>
      <point x="147" y="-8" type="line"/>
      <point x="425" y="-8" type="line"/>
      <point x="425" y="260" type="line"/>
    </contour>
    <contour>
      <point x="286" y="-150" type="move" name="_top"/>
    </contour>
  </outline>
</glyph>
<glyph name="dblgravecmb" format="1">
  <advance width="825"/>
  <unicode hex="030F"/>
  <outline>
    <contour>
      <point x="9" y="1912" type="line"/>
      <point x="265" y="1637" type="line"/>
      <point x="332" y="1684" type="line"/>
      <point x="144" y="2009" type="line"/>
    </contour>
    <contour>
      <point x="312" y="1912" type="line"/>
      <point x="527" y="1637" type="line"/>
      <point x="594" y="1684" type="line"/>
      <point x="443" y="2009" type="line"/>
    </contour>
    <contour>
      <point x="412" y="1500" type="move" name="_top"/>
    </contour>
  </outline>
</glyph>
<glyph name="uni0311" format="1">
  <advance width="1016"/>
  <unicode hex="0311"/>
  <outline>
    <contour>
      <point x="369" y="1803"/>
      <point x="310" y="1722"/>
      <point x="313" y="1609" type="curve" smooth="yes"/>
      <point x="313" y="1596" type="line"/>
      <point x="377" y="1599" type="line"/>
      <point x="375" y="1694"/>
      <point x="443" y="1714"/>
      <point x="499" y="1715" type="curve" smooth="yes"/>
      <point x="560" y="1717"/>
      <point x="629" y="1697"/>
      <point x="631" y="1606" type="curve"/>
      <point x="695" y="1609" type="line"/>
      <point x="695" y="1624" type="line"/>
      <point x="692" y="1739"/>
      <point x="623" y="1811"/>
      <point x="499" y="1806" type="curve" smooth="yes"/>
    </contour>
    <contour>
      <point x="508" y="1500" type="move" name="_top"/>
    </contour>
  </outline>
</glyph>
<glyph name="commaaccentcomb" format="1">
  <advance width="528"/>
  <unicode hex="0326"/>
  <outline>
    <contour>
      <point x="168" y="242" type="line"/>
      <point x="168" y="50" type="line"/>
      <point x="268" y="50" type="line"/>
      <point x="225" y="-223" type="line"/>
      <point x="287" y="-223" type="line"/>
      <point x="365" y="59" type="line"/>
      <point x="365" y="242" type="line"/>
    </contour>
    <contour>
      <point x="256" y="389" type="move" name="_bottom"/>
    </contour>
    <contour>
      <point x="308" y="-321" type="move" name="_top"/>
    </contour>
  </outline>
</glyph>
<glyph name="quoteleft" format="1">
  <advance width="597"/>
  <unicode hex="2018"/>
  <outline>
    <contour>
      <point x="281" y="1783" type="line"/>
      <point x="167" y="1357" type="line"/>
      <point x="167" y="1164" type="line"/>
      <point x="438" y="1164" type="line"/>
      <point x="438" y="1366" type="line"/>
      <point x="296" y="1366" type="line"/>
      <point x="387" y="1783" type="line"/>
    </contour>
  </outline>
</glyph>
<glyph name="product" format="1">
  <advance width="933"/>
  <unicode hex="220F"/>
  <outline>
    <contour>
      <point x="155" y="1760" type="line"/>
      <point x="155" y="0" type="line"/>
      <point x="305" y="0" type="line"/>
      <point x="305" y="1649" type="line"/>
      <point x="628" y="1649" type="line"/>
      <point x="628" y="0" type="line"/>
      <point x="778" y="0" type="line"/>
      <point x="778" y="1760" type="line"/>
    </contour>
  </outline>
</glyph>
<glyph name="minus" format="1">
  <advance width="637"/>
  <unicode hex="2212"/>
  <outline>
    <contour>
      <point x="20" y="741" type="line"/>
      <point x="20" y="626" type="line"/>
      <point x="616" y="626" type="line"/>
      <point x="616" y="741" type="line"/>
    </contour>
  </outline>
</glyph>
<glyph name="integral" format="1">
  <advance width="767"/>
  <unicode hex="222B"/>
  <outline>
    <contour>
      <point x="378" y="1787"/>
      <point x="316" y="1703"/>
      <point x="316" y="1539" type="curve" smooth="yes"/>
      <point x="316" y="305" type="line" smooth="yes"/>
      <point x="316" y="160"/>
      <point x="297" y="128"/>
      <point x="170" y="128" type="curve" smooth="yes"/>
      <point x="154" y="128"/>
      <point x="135" y="129"/>
      <point x="115" y="130" type="curve"/>
      <point x="115" y="8" type="line"/>
      <point x="170" y="-6"/>
      <point x="215" y="-12"/>
      <point x="252" y="-12" type="curve" smooth="yes"/>
      <point x="390" y="-12"/>
      <point x="453" y="68"/>
      <point x="453" y="221" type="curve" smooth="yes"/>
      <point x="453" y="1521" type="line" smooth="yes"/>
      <point x="453" y="1614"/>
      <point x="475" y="1654"/>
      <point x="538" y="1654" type="curve" smooth="yes"/>
      <point x="566" y="1654"/>
      <point x="604" y="1645"/>
      <point x="652" y="1630" type="curve"/>
      <point x="652" y="1752" type="line"/>
      <point x="590" y="1775"/>
      <point x="537" y="1787"/>
      <point x="496" y="1787" type="curve" smooth="yes"/>
    </contour>
  </outline>
</glyph>
<glyph name="uniFB00" format="1">
  <advance width="1220"/>
  <outline>
    <contour>
      <point x="834" y="1442" type="line"/>
      <point x="374" y="1442" type="line"/>
      <point x="374" y="1534" type="line" smooth="yes"/>
      <point x="374" y="1606"/>
      <point x="381" y="1657"/>
      <point x="492" y="1657" type="curve" smooth="yes"/>
      <point x="514" y="1657"/>
      <point x="541" y="1655"/>
      <point x="573" y="1650" type="curve"/>
      <point x="573" y="1770.99" type="line"/>
      <point x="570.177" y="1771.73"/>
      <point x="510.45" y="1789"/>
      <point x="438" y="1789" type="curve" smooth="yes"/>
      <point x="277" y="1789"/>
      <point x="224" y="1688"/>
      <point x="224" y="1512" type="curve" smooth="yes"/>
      <point x="224" y="1442" type="line"/>
      <point x="84" y="1442" type="line"/>
      <point x="84" y="1329" type="line"/>
      <point x="224" y="1329" type="line"/>
      <point x="224" y="0" type="line"/>
      <point x="374" y="0" type="line"/>
      <point x="374" y="1329" type="line"/>
      <point x="834" y="1329" type="line"/>
      <point x="834" y="0" type="line"/>
      <point x="984" y="0" type="line"/>
      <point x="984" y="1329" type="line"/>
      <point x="1183" y="1329" type="line"/>
      <point x="1183" y="1442" type="line"/>
      <point x="984" y="1442" type="line"/>
      <point x="984" y="1534" type="line" smooth="yes"/>
      <point x="984" y="1606"/>
      <point x="991" y="1657"/>
      <point x="1102" y="1657" type="curve" smooth="yes"/>
      <point x="1124" y="1657"/>
      <point x="1151" y="1655"/>
      <point x="1183" y="1650" type="curve"/>
      <point x="1183" y="1770.99" type="line"/>
      <point x="1180.18" y="1771.73"/>
      <point x="1120.45" y="1789"/>
      <point x="1048" y="1789" type="curve" smooth="yes"/>
      <point x="887" y="1789"/>
      <point x="834" y="1688"/>
      <point x="834" y="1512" type="curve" smooth="yes"/>
    </contour>
  </outline>
</glyph>
